/* XPM */
static char *_17986dd547c4962898cb68ffccb3ce0PlRiWZ4yJ6Mg0MO3[] = {
/* columns rows colors chars-per-pixel */
"64 64 23 1 ",
"  c black",
". c gray52",
"X c #898989",
"o c #A3A3A2",
"O c #A9A9A8",
"+ c #ADADAC",
"@ c #B5B4B4",
"# c #B9B9B9",
"$ c #D2D2D0",
"% c #D4D4D2",
"& c #D8D7D7",
"* c #DFDEDE",
"= c #E3E3E2",
"- c #E9E9E7",
"; c gray91",
": c #EFEFEC",
"> c #F0F0ED",
", c #F3F3F1",
"< c #F4F3F3",
"1 c #F5F5F3",
"2 c #F8F8F7",
"3 c #FAFAF9",
"4 c white",
/* pixels */
"                                                                ",
"                                                                ",
"                                                                ",
"   444>,>>4444444>>4444444444>>44>>4444444444>>4444444>>,>444   ",
"   44>444>>444444443>444444***4**4***444444>344444444>>444>44   ",
"   4>444>4444>>>>%*..*4*34*>>444444>>*43*4*..*%>>>>4444>444>4   ",
"   4441..444>>44.444**4444.3***44***3.4444**444.44>>444..1444   ",
"   44>4****=..444>**4.**.o.4*..**..*4.o.**.4**>444..=****4>44   ",
"   4>4.444>.4*44>*4..>4>4***44:**:44***4>4>..4*>44*4.>444.4>4   ",
"   4>#444..444>4*..444>44.44**4444**44.44>444..*4>444..444#>4   ",
"   4>.4>>.444>4*.444>>..**444.*44*.444**..>>444.*4>444.>>4.>4   ",
"   44$4>.444>4*.444>>.4444444>4444>4444444.>>444.*4>444.>4$44   ",
"   4.4>.>44>44.444>..44444444>4**4>44444444..>444.44>44>.>4.4   ",
"   4.4>.444>4.444>.4>44>.4.4.*4444*.4.4.>44>4.>444.4>444.>4.4   ",
"   444O>44>4.444>.4>44*.4444*>4444>*4444.*44>4.>444.4>44>O444   ",
"   4.4>>4>4.444>.4>4*,444***444**444***444,*4>4.>444.4>4>>4.4   ",
"   4.>4>>>4.444*4>4*444**4*4*.4444.*4*4**444*4>4*444.4>>>4>.4   ",
"   4.44444444>>.**444***4.4;<*4**4*<;4.4***444**.>>44444444.4   ",
"   44..44444>>.4>.4**>4.>>>>>>*>>*>>>>>>.4>**4.>4.>>44444..44   ",
"   >44*.44>>444>4.**>..44>44444::44444>44..>**.4>444>>44.*44>   ",
"   >44*.4>44444>.44>;.444>..444..444..>444.;>44.>44444>4.*44>   ",
"   >4>*>4444.4>4.*4>.444>.*4=*4**4*=4*.>444.>4*.4>4.4444>*>4>   ",
"   44*.444*.44>.4*>.4444**44*444444*44**4444.>*4.>44.*444.*44   ",
"   44*4*44*.44>.>4.>444.4-*4.444444.4*-4.444>.4>.>44.*44*4*44   ",
"   44*4@44*.**+44*.>4>4>>*4.44.44.44.4*>>4>4>.*44+**.*44@4*44   ",
"   4**&>4*>>*444444>4>.44>4.4>4..4>4.4>44.>4>444444*>>*4>&**4   ",
"   4*.444*.*4>>44*4>444444.4>******>4.444444>4*44>>4*.*444.*4   ",
"   4*4*24*.*44>4444>>.44>4*4*4>..>4*4*4>44.>>4444>44*.*42*4*4   ",
"   44.*44**.44>44*4>>.44**4.44>44>44.4**44.>>4*44>44.**44*.44   ",
"   4*.*>44*.4>>>4*44>.4*>4X.44....44.X4>*4.>44*4>>>4.*44>*.*4   ",
"   4*.4>4*4.4>41.>*4..*.,*.>4.>>>>.4>.*,.*..4*>.14>4.4*4>4.*4   ",
"   4444>.*44434*.>4.>44.4*4*4.;..;.4*4*4.44>.4>.*43444*.>4444   ",
"   4444>.*44434*.>4.>44.4*4*4.;..;.4*4*4.44>.4>.*43444*.>4444   ",
"   4*.4>4*4.4>41.>*4..*.,*.>4.>>>>.4>.*,.*..4*>.14>4.4*4>4.*4   ",
"   4*.*>44*.4>>>4*44>.4*>4X.44....44.X4>*4.>44*4>>>4.*44>*.*4   ",
"   44.*44**.44>44*4>>.44**4.44>44>44.4**44.>>4*44>44.**44*.44   ",
"   4*4*24*.*44>4444>>.44>4*4*4>..>4*4*4>44.>>4444>44*.*42*4*4   ",
"   4*.444*.*4>>44*4>444444.4>******>4.444444>4*44>>4*.*444.*4   ",
"   4**&>4*>>*444444>4>.44>4.4>4..4>4.4>44.>4>444444*>>*4>&**4   ",
"   44*4@44*.**+44*.>4>4>>*4.44.44.44.4*>>4>4>.*44+**.*44@4*44   ",
"   44*4*44*.44>.>4.>444.4-*4.444444.4*-4.444>.4>.>44.*44*4*44   ",
"   44*.444*.44>.4*>.4444**44*444444*44**4444.>*4.>44.*444.*44   ",
"   >4>*>4444.4>4.*4>.444>.*4=*4**4*=4*.>444.>4*.4>4.4444>*>4>   ",
"   >44*.4>44444>.44>;.444>..444..444..>444.;>44.>44444>4.*44>   ",
"   >44*.44>>444>4.**>..44>44444::44444>44..>**.4>444>>44.*44>   ",
"   44..44444>>.4>.4**>4.>>>>>>*>>*>>>>>>.4>**4.>4.>>44444..44   ",
"   4.44444444>>.**444***4.4;<*4**4*<;4.4***444**.>>44444444.4   ",
"   4.>4>>>4.444*4>4*444**4*4*.4444.*4*4**444*4>4*444.4>>>4>.4   ",
"   4.4>>4>4.444>.4>4*,444***444**444***444,*4>4.>444.4>4>>4.4   ",
"   444O>44>4.444>.4>44*.4444*>4444>*4444.*44>4.>444.4>44>O444   ",
"   4.4>.444>4.444>.4>44>.4.4.*4444*.4.4.>44>4.>444.4>444.>4.4   ",
"   4.4>.>44>44.444>..44444444>4**4>44444444..>444.44>44>.>4.4   ",
"   44$4>.444>4*.444>>.4444444>4444>4444444.>>444.*4>444.>4$44   ",
"   4>.4>>.444>4*.444>>..**444.*44*.444**..>>444.*4>444.>>4.>4   ",
"   4>#444..444>4*..444>44.44**4444**44.44>444..*4>444..444#>4   ",
"   4>4.444>.4*44>*4..>4>4***44:**:44***4>4>..4*>44*4.>444.4>4   ",
"   44>4****=..444>**4.**.o.4*..**..*4.o.**.4**>444..=****4>44   ",
"   4441..444>>44.444**4444.3***44***3.4444**444.44>>444..1444   ",
"   4>444>4444>>>>%*..*4*34*>>444444>>*43*4*..*%>>>>4444>444>4   ",
"   44>444>>444444443>444444***4**4***444444>344444444>>444>44   ",
"   444>,>>4444444>>4444444444>>44>>4444444444>>4444444>>,>444   ",
"                                                                ",
"                                                                ",
"                                                                "
};
