/* XPM */
static char *_524da59325a4c63ab0dc9e07efb8edbj26WtSX6Gj9slKYJ[] = {
/* columns rows colors chars-per-pixel */
"64 64 26 1 ",
"  c None",
". c black",
"X c #070607",
"o c #1B2433",
"O c #306D44",
"+ c #4D784D",
"@ c #E1562C",
"# c #75AF37",
"$ c #729D44",
"% c #618052",
"& c #6E8556",
"* c #56857E",
"= c #4F6995",
"- c #76618A",
"; c #7A8284",
": c #959CA2",
"> c #9E9DA2",
", c #A591AE",
"< c #99A0A6",
"1 c #A9AFB8",
"2 c #B1B7C2",
"3 c #B2B8C2",
"4 c #BCC6CC",
"5 c #C8C0CB",
"6 c #D6C5D1",
"7 c #C5D3D6",
/* pixels */
"                                                                ",
"                                                                ",
"                                                                ",
"                                                                ",
"                                                                ",
"                                                                ",
"                                                                ",
"                                                                ",
"                                                                ",
"                                                                ",
"                                                                ",
"                              ....                              ",
"                            ..333..                             ",
"                          ..333;36..                            ",
"                         ..33;;7;6;.                            ",
"                        ..33;;7;66;.                            ",
"                       ..33;;7;;6;;.                            ",
"                      ..3;;;77;6;;;.                            ",
"                      .3;;;77;;6;;..                            ",
"                      .3;337;:>;3..                             ",
"                     ..;3377;66;3.                              ",
"                     .33;77;3633;.                              ",
"                    .;3;37;166;;.              ........         ",
"                    .3;373;66;;..  ........   .;;;;;;;;.        ",
"                   .33;37;36;;;.  ..#&&$&&.....;7633366..       ",
"                   .33;3;666;;.....###O&O..;;;7777777766..      ",
"                   .333;;66;;..#OO#&&O&#O.33333333333;;;;.      ",
"                   .333;36;;..#O&#&OO&....3;;;;;;;;;;;;;;.      ",
"                   .333;66;;.OO&#&O&%..;;;;;666666636666;.      ",
"                   .33;36;;;.#&&&O....;;;777333333333366;.      ",
"                   .;3;36;;..&&O+&.;;;;;;;6665233333336;..      ",
"                   ...33;;..&OO....777766;;;;3333333;;...       ",
"                     .33;..&O#..63333333333333;;333;;;.         ",
"                   ............;;;;;;;;;<333333333;;;..         ",
"              ......=======.3333337773366666666663....          ",
"             ..@@@.==....==..3367743333336666;;;;;.             ",
"             .@@@@....@@..==..;;;;;;;;;;;;;;;......             ",
"            .@@@@@@.@@@@@..===................                  ",
"            .@@@@@@.@@@@@@.===.---***,,,...  ..                 ",
"            ..@@@@@@@@@@@@.===.-**,,,,**. .   .                 ",
"             ..@@@.@@@@@@..=o..*,,,,*.... .   .                 ",
"              ..@...@@@@..==.**,X..*.. .  .   ..                ",
"               ...=.@@@..===.**.. ...  .  ..   ..               ",
"                 .=.....===.....    .  .   .    .               ",
"                ..=..======.   .    .  ..  ..   .               ",
"               ..==..===....   .    .   .   ..   .              ",
"               .==. .....  .   ...  ..  .        ..             ",
"              ..==.        .     .   .  .                       ",
"              .===.        ..    .   .   .                      ",
"              ..==.         .    .   .                          ",
"               ....         .    .                              ",
"                .           .    .                              ",
"                                                                ",
"                                                                ",
"                                                                ",
"                                                                ",
"                                                                ",
"                                                                ",
"                                                                ",
"                                                                ",
"                                                                ",
"                                                                ",
"                                                                ",
"                                                                "
};
