/* XPM */
static char *_dbb6f604612445aca374bf8118f114akw2Bl7btBSvRaf4J[] = {
/* columns rows colors chars-per-pixel */
"64 64 26 1 ",
"  c #D1B43E",
". c #DBBF3B",
"X c #EBCF36",
"o c #EFD83D",
"O c #F1D634",
"+ c #FFE430",
"@ c #F9E035",
"# c #C0A343",
"$ c #C3A642",
"% c #C2A94B",
"& c #C0A753",
"* c #C6B95F",
"= c #C0AA60",
"- c #C1AC68",
"; c #C5B865",
": c #C4B66E",
"> c #C1AE70",
", c #C3B573",
"< c #C2B476",
"1 c #C1B37B",
"2 c #C1B27E",
"3 c #DFCC4A",
"4 c #D1C156",
"5 c #E8D343",
"6 c #EED745",
"7 c #C1B280",
/* pixels */
"#####+++++******************************************************",
"######.++++*****************************************************",
"77&#####+++++***************************************************",
"77777#####+++++*************************************************",
"7777777#####+++++***********************************************",
"+*7777777#####++++++********************************************",
"*****777777#####++++++++5********************************1777777",
"*******777777######+++++++++++++++********************7777777777",
"********;777777#######++++++++++++++****************77777777777:",
"**********;7777777#######++++++++*****************77777777######",
"*************777777772####++++******************,777777#########",
"*****************77777777**********************77777############",
"*********************************************77777########O+++++",
"********************************************7777=####X++++++++++",
"*******************************************7777####+++++++++++++",
"******************************************777### +++++++++++++++",
"*****************************************777###++++++++*********",
"****************************************77###+++++++************",
"****************************************776++++++***************",
"**************************************++7++++++*****************",
"************************************4++++++++*******************",
"77<********************************++++++++*********************",
"77777777:************************3+++*++4***********************",
"7777777777777********************+o*****************************",
"7-#######>777777************************************************",
"#############77777**********************************************",
"################777*********************************************",
"#X+++++++++$#####%77********************************************",
"+++++++++++++++####77*******************************************",
"+++++++++++++++++###7*******************++++********************",
"+++++++++++++++++++##+*******************++++++*****************",
"+++++++++++++++++++++++******************+++++++++@*************",
"*************@+++++++++******************+++++++++++++++++++++++",
"*****************++++++*******************+##+++++++++++++++++++",
"********************++++*******************7###+++++++++++++++++",
"*******************************************77####+++++++++++++++",
"********************************************77%#####$+++++++++X#",
"*********************************************777################",
"**********************************************77777#############",
"************************************************777777>#######-7",
"*****************************o+********************7777777777777",
"***********************4++*+++3************************:77777777",
"*********************++++++++********************************<77",
"*******************++++++++4************************************",
"*****************++++++7++**************************************",
"***************++++++677****************************************",
"************+++++++###77****************************************",
"*********++++++++###777*****************************************",
"+++++++++++++++ ###777******************************************",
"+++++++++++++####7777*******************************************",
"++++++++++X####=7777********************************************",
"+++++O########77777*********************************************",
"############77777**********************77777777*****************",
"#########777777,******************++++####277777777*************",
"######77777777*****************++++++++#######7777777;**********",
":77777777777****************++++++++++++++#######777777;********",
"7777777777********************+++++++++++++++######777777*******",
"7777771********************************5++++++++#####777777*****",
"********************************************++++++#####7777777*+",
"***********************************************+++++#####7777777",
"*************************************************+++++#####77777",
"***************************************************+++++#####&77",
"*****************************************************++++.######",
"******************************************************+++++#####"
};
