/* XPM */
static char *_91b79d4d2ed42c2caf3ef02bcda3de5TOFtSKzn02ZtlhFt[] = {
/* columns rows colors chars-per-pixel */
"64 64 30 1 ",
"  c None",
". c black",
"X c #010101",
"o c #020202",
"O c #060504",
"+ c #080705",
"@ c #0C0704",
"# c #221309",
"$ c #24140A",
"% c #39200F",
"& c #3C2210",
"* c #3D2311",
"= c #3E2312",
"- c #3F2513",
"; c #402615",
": c #412817",
"> c #452E18",
", c #462F19",
"< c #493121",
"1 c #4D3627",
"2 c #4E3728",
"3 c #4B382B",
"4 c #503D22",
"5 c #50392A",
"6 c #523D2A",
"7 c #523C2D",
"8 c #533E2C",
"9 c #543E2F",
"0 c #543E30",
"q c #FDF0E8",
/* pixels */
"                          XXXXXXXXXXXXXXXX                      ",
"                        XXX&&&&&&00000000XX                     ",
"                       XX&&&00000000000000XX                    ",
"                       X&&&00&X000000000000XX                   ",
"                     XXX&&000&XX000000000000X     X             ",
"                     X&&&&&00&&&0000&&&&&000XXXXXXX             ",
"                     X&XXX000000000&&&XXX&-0000&&XX             ",
"                    XXXX44000000000&0044XXX&&&&&XX              ",
"                   XX&&4600000000000000044XXXXXXX               ",
"                  XX&&0000000000000000000044XX                  ",
"                 XX&&000000000000000000000004XX                 ",
"               XXX&&00000000000000000000000004XXX               ",
"              XX&&&&000000000000000000000000000>XX              ",
"              X&&&000000:X00000000000X0000000000&X              ",
"             XX&&&0000X&&X000&&00000<#0000000000&XX             ",
"             X&&&000000000000&X00000&&0000000000&&X             ",
"            XX&&&0000000000000000000&X0000000000&&&X            ",
"            X&&&&&00000000000000000000000000000&&&&X            ",
"            XX&&&&0000000000000000000000000000&&&&XX            ",
"             XX&&&&&0000000000000000000000000&&&XXX             ",
"            XX4XX&&&&&000000000000000000000&&&&XX4XX            ",
"          XXX&44XXXX&&&&000000000000000&&&&;XXXX444XXX          ",
"         XX&&000044XXXXXX&&&000000001&&XXXXXX440000&&XX         ",
"        XX&0000000044444XXXX&&&&0000XXXX444440000000&&XX        ",
"       XX&0000000000000000000000000000000000000000000&&XX       ",
"      XX&000X00000000000000000000000000000000000000000&&XX      ",
"      X&&000&&0000000000000000000000000000000000000000&&&X      ",
"      X&0000000000000000000000000000000000000000000000X&&X      ",
"     XX&00000000000000000000000000000000000000000000000&&XX     ",
"     X&&&00X&&000000000000X&000000000000&&0000000000000&&&X     ",
"     X&&&00000000000000000&0000000000&00XX0000000000000&&&X     ",
"     +X&&&00000000000000000000000000X&0000000000000000&&&&+     ",
"      X&&&&&0000000000000000000000000000000000000000&&&&&X      ",
"      XXX&&&&&&00000000000000000000000000000000000&&&&&XXX      ",
"        XXXX&&&&&&0000000000000000000000000&&&&&&&&&XXXX        ",
"      XXX44XXXXXX&&&&&&&&0000000000000000&&&&&&XXXXXX44XXX      ",
"     XX444444444XXXXX&&&&&000000000000&&&&&XXXXX44444444&XX     ",
"    XX00000000004444XXXXX$&&&X&000&&&&$XXXXX444400000000&&XX    ",
"   XX&00000&00000044444444000&&00000004444444400000000000&&XX   ",
"  XX&000000X&000000000000000000000000000000000000000000000&&XX  ",
"  X&&000000&00000000000000000000000000000000000000000000000&&X  ",
" XX&&0000000000000000000000000000000000000000000000000&X&00&&XX ",
" X&&00000000000000000000XXXX00000000XXXX000000000000000&000&&&X ",
" X&&0000000000000000000XXqqX00000000XqqXX000000000000000000&&&X ",
" X&&&00000000000000000XXXqqXX000000XXqqXXX0000000000000000&&&&X ",
" X&&&00000X&0000000000XXXqqXX000000XXqqXXX000000X&00000000X&&&X ",
" XX&&&00000&0000000000XXXqqqX000000XqqqXXX0000000000000000&&&XX ",
"  X&&&&&00000000000000XqqqqXX000000XXqqqqX000000000000000&&&&X  ",
" XXX@&&&&0000000000000XqqqqX&000000&XqqqqX0000000000000&&&&@XXX ",
" X&&XXX&&&&00000000000&XXXXX&000000&XXXXX&00000000000&&&&XXX>&X ",
" X&&44XXX&&&&0000000000&&&&&00000000&&&&&0000000000&&&&XXX44&&X ",
" X&&8444XXXXX&00000000000000000000000000000000000&&XXXXX4448&&X ",
" X&&00444444XX&&&&000000000000X00X00000000&&&&&&&&XX44444400&&X ",
" X&&&000094440000000000000000XX00XX000000000000000044490000&&XX ",
" XX&&000&00000000000000000000XX&&XX00000000000O000000000000&&X  ",
"  X&&00X&00000000000000000000&&&&&&00000000000000000000000&&&X  ",
"  XX&&0000000000000X0000000000000000000000000000000000X0&&&&XX  ",
"   XX&&000000&00000&00000XX000XXXX000XX0000000000000003&&&&XX   ",
"    XX&&&&&20X&0000000000&XXXXX&&XXXXX&0000X&00000000&&&&&XX    ",
"     XXXXX&&&&000000000000&&&&&50&&&&&0000000000000&&&&XXXX     ",
"         XXXX&&&&&00000000000000000000000000008&&&&XXXXX        ",
"            XXXXXX&&&&&&&00000000000000000&&&&&XXXXX            ",
"                 XXX%&&&&&&&&&&&&&&&&&&&&&&&XXXX                ",
"                   XXXXXXXXXXXXXXXXXXXXXXXXXX                   "
};
