/* XPM */
static char *d1b0f6b70423420a98482f332075e62ajpBsXUVURdANJBM1[] = {
/* columns rows colors chars-per-pixel */
"64 64 18 1 ",
"  c None",
". c black",
"X c gray7",
"o c gray52",
"O c gray53",
"+ c #898989",
"@ c #8B8B8B",
"# c #9F9E96",
"$ c #EFEFED",
"% c #F0EFED",
"& c #F0F0ED",
"* c #F0F0EE",
"= c #F1F0EE",
"- c #F1F1EE",
"; c #F8F8F7",
": c #FBFBFA",
"> c #FBFBFB",
", c white",
/* pixels */
"                                                                ",
"                                                                ",
"                                                                ",
"                                                                ",
"                                                                ",
"                                                                ",
"                                                                ",
"                                                     .......... ",
"                                                    ..,,,,&&&o..",
"                                                    .,,,,&&&&oo.",
"                                                   ..,,,&&&&&&o.",
"                                                   .,,,,&&&&&&o.",
"                       .........           ......  .,,,,&&&&&&o.",
"                     ...&&&&&&&..      .....&&&&....,,,,&&&&&&o.",
"                 .....&&&&&&&&&&..... ..&&&&&&&&&oo.,,,,&&&&&&o.",
"               ...&&&&&,,,,,,,,&&&&o...o&&&&&&&&&&o.,,,,&&&&&&o.",
"             ...&&&&&&,,&&&&&,,&&&&&&o..o&&&,&&&&&+.,,,&&&&&&&o.",
"            ..&&&&&&&&&&&&&&&&&&&&&&&&o..o&&&,,&&&o.,,,&&&&&&&o.",
"           ..&&&&&&&&&&&&&&&&&&&&&;&&&&o..o&&&,,&&o.,,,&&&&&&&o.",
"          ..&&&&,,%&&&&&&&&&&&&&&&,&&&&&o..o&&&&&&o.,,,&&&&&&&o.",
"         ..&&&,,&&&&&&&&&&&&&&&&&&&,&&&&&o..o&&&&&o.,,&&&&&&&&o.",
"        ..&&&,,&&&&&&&&&&&&&&&&&&&&,,&&&&oo..o&&&&o.,,&&&&&&&&o.",
"       ..&&&,&&&&&&&&&&&&&&&&&&&&&&&,,&&&&oo..o&ooo.,,&&&&&&&&o.",
"      ..&&,,&&&&&&&&&&&&&&&&&&&&&&&&&>&&&&&oo..oo.o.,,&&&&&&&&o.",
"     ..&&,,&&&&&&&&&&&&&&&&&&&&&&&&&&,,&&&&&oo.oo.o.,,&&&&&&&&o.",
"     .&&,,&&&&&&&&&&&&&&&&&&&&&&&&&&&,,&&&&&oo....o.,,&&&&&&&&o.",
"    ..&&,&&&&&&&&&&&&&&&&&&&&&&&&&&&&&,>&&&&&ooo..o.,,&&&&&&&&o.",
"    .&&,,&&&&&&&&&&&&&&&&&&&&&&&&&&&&&,,&&&&&ooo.oo.,,&&&&&&&&o.",
"    .&&,&&&&&&&&&&&&&&&&&&&&&&&&&&&&&&,,,&&&&&oo.oo.,&&&&,,,&&o.",
"    .&,,&&&&&&&&&&&&&&&&&&&&&&&&&&&&&&&,,,&&&&&+.oo.,&&&,...o&o.",
"    .&,,,&&&&&&&&&&&&&&&&&&&&&&&&&&&&&&,,,,&&&&o.oo.,&&,.###.oo.",
"    .&,,,,&&&&&&&&&&&&&&&&&&&&&&&&&&&,,,,,,&&&&&.oo.,&&,.#X#.oo.",
"    .&,,,,&&&&&&&&&&&&&&&&&&&&&&&&&&&,,,,,,&&&&&.oo.,&&,.#X#.oo.",
"    .&,,,&&&&&&&&&&&&&&&&&&&&&&&&&&&&&&,,,,&&&&o.oo.,&&,.###.oo.",
"    .&,,&&&&&&&&&&&&&&&&&&&&&&&&&&&&&&&,,,&&&&&+.oo.,&&&,...o&o.",
"    .&&,&&&&&&&&&&&&&&&&&&&&&&&&&&&&&&,,,&&&&&oo.oo.,&&&&,,,&&o.",
"    .&&,,&&&&&&&&&&&&&&&&&&&&&&&&&&&&&,,&&&&&ooo.oo.,,&&&&&&&&o.",
"    ..&&,&&&&&&&&&&&&&&&&&&&&&&&&&&&&&,>&&&&&ooo..o.,,&&&&&&&&o.",
"     .&&,,&&&&&&&&&&&&&&&&&&&&&&&&&&&,,&&&&&oo....o.,,&&&&&&&&o.",
"     ..&&,,&&&&&&&&&&&&&&&&&&&&&&&&&&,,&&&&&oo.oo.o.,,&&&&&&&&o.",
"      ..&&,,&&&&&&&&&&&&&&&&&&&&&&&&&>&&&&&oo..oo.o.,,&&&&&&&&o.",
"       ..&&&,&&&&&&&&&&&&&&&&&&&&&&&,,&&&&oo..o&ooo.,,&&&&&&&&o.",
"        ..&&&,,&&&&&&&&&&&&&&&&&&&&,,&&&&oo..o&&&&o.,,&&&&&&&&o.",
"         ..&&&,,&&&&&&&&&&&&&&&&&&&,&&&&&o..o&&&&&o.,,&&&&&&&&o.",
"          ..&&&&,,&&&&&&&&&&&&&&&&,&&&&&o..o&&&&&&o.,,,&&&&&&&o.",
"           ..&&&&&&&&&&&&&&&&&&&&&;&&&&o..o&&&,,&&o.,,,&&&&&&&o.",
"            ..&&&&&&&&&&&&&&&&&&&&&&&&o..o&&&,,&&&o.,,,$&&&&&&o.",
"             ...&&&&&&,,&&&&&,,&&&&&&o..o&&&,&&&&&o.,,,&&&&&&&o.",
"               ...&&&&&,,,,,,,,&&&&o...o&&&&&&&&&&o.,,,,&&&&&&o.",
"                 .....&&&&&&&&&&..... ..&&&&&&&&&oo.,,,,&&&&&&o.",
"                     ...&&&&&&&..      .....&&&&....,,,,&&&&&&o.",
"                       .........           ......  .,,,,&&&&&&o.",
"                                                   .,,,,&&&&&&o.",
"                                                   ..,,,&&&&&&o.",
"                                                    .,,,,&&&&oo.",
"                                                    ..,,,,&&&o..",
"                                                     .......... ",
"                                                                ",
"                                                                ",
"                                                                ",
"                                                                ",
"                                                                ",
"                                                                ",
"                                                                "
};
