/* XPM */
static char *e443ee557fe144c6bd3d94a17da816f99hpS1oHPxPDAOWoa[] = {
/* columns rows colors chars-per-pixel */
"64 64 18 1 ",
"  c None",
". c black",
"X c #010101",
"o c #181818",
"O c gray11",
"+ c #1E677B",
"@ c #42C5E9",
"# c gray52",
"$ c #8B8B8B",
"% c #9F9E96",
"& c #A5A5A5",
"* c #EFEFED",
"= c #F0EFED",
"- c #F0F0ED",
"; c #F0F0EE",
": c #F1F0EE",
"> c #F1F1EE",
", c white",
/* pixels */
"                                                                ",
"                                                                ",
"                                                                ",
"                                                                ",
"                                                                ",
"                                                                ",
"                                                                ",
"                                                     .......... ",
"                                                    ..,,,,,--#..",
"                                                    .,,,,,---##.",
"                                                   ..,,,,-----#.",
"                                                   .,,,,,-----#.",
"                       .........           ....... .,,,,------#.",
"                     ...#######..      ....--###....,,,,------#.",
"                 .....###----###..... ..------#..##.,,,-------#.",
"               ...#####--------#####...#--,,--#.--#.,,,-------#.",
"             ...####---------------###..#--,--#.--$.,,,-------#.",
"            ..####-------------------##..#--,-#.,-#.,,,-------#.",
"           ..###----------------------##..#---#.,-#.,,--------#.",
"          ..##----=----,,,,,-----------##..#--#.,-#.,,--------#.",
"         ..##---------,-----,,----.-----##..#-#.,-#.,,--------#.",
"        ..##---------,--------,---#.-----##..##.,-#.,,--------#.",
"       ..##-----..-------------,---#.-----##..#.,-#.,,--------#.",
"      ..###-----.#--------------,---#.-----##...,-#.,,--------#.",
"     ..###-----.#-------------------#.-----###..,-#.,,--------#.",
"     .##------.##--------------------#-----###..,-#.,,--------#.",
"    ..#-------.#-------.-------#.------,----##..,-#.,---------#.",
"    .#&---,--.#------.O#-------#.-------,---##..,-#.,---------#.",
"    .#---,--------,--##---------#-----------##..,-#.,----,,,--#.",
"    .#---,-------,-----........-#.------,,---#..,-#.,---,...--#.",
"    .#--,,-------,----.@@@@+++.-#.------,,---#..,-#.,,-,.%%%.##.",
"    .#--,,-------,----o@@@++++.-##------,----#..,-#.,,-,.%.%.##.",
"    .#--,,-------,----o@@@++++.-##------,----#..,-#.,,-,.%.%.##.",
"    .#--,,-------,----.@@@@+++.-#.------,,---#..,-#.,,-,.%%%.##.",
"    .#---,-------,-----........-#.------,,---#..,-#.,---,...--#.",
"    .#---,--------,--##---------#-----------##..,-#.,----,,,--#.",
"    .#&---,--.#------.O#-------#.-------,---##..,-#.,---------#.",
"    ..#-------.#-------.-------#.------,----##..,-#.,---------#.",
"     .##------.##--------------------#-----###..,-#.,,--------#.",
"     ..###-----.#-------------------#.-----###..,-#.,,--------#.",
"      ..###-----.#--------------,---#.-----##...,-#.,,--------#.",
"       ..##-----..-------------,---#.-----##..#.,-#.,,--------#.",
"        ..##---------,--------,---#.-----##..##.,-#.,,--------#.",
"         ..##---------,-----,,----.-----##..#-#.,-#.,,--------#.",
"          ..##---------,,,,,-----------##..#--#.,-#.,,--------#.",
"           ..###----------------------##..#---#.,-#.,,--------#.",
"            ..####-------------------##..#--,-#.,-#.,,,*------#.",
"             ...####---------------###..#--,--#.--#.,,,-------#.",
"               ...#####--------#####...#--,,--#.--#.,,,-------#.",
"                 .....###----###..... ..------#..##.,,,-------#.",
"                     ...#######..      ....--###....,,,,------#.",
"                       .........           ......  .,,,,------#.",
"                                                   .,,,,,-----#.",
"                                                   ..,,,,-----#.",
"                                                    .,,,,,---##.",
"                                                    ..,,,,,--#..",
"                                                     .......... ",
"                                                                ",
"                                                                ",
"                                                                ",
"                                                                ",
"                                                                ",
"                                                                ",
"                                                                "
};
